<svg xmlns="http://www.w3.org/2000/svg" width="22" height="22"><path d="M13.449 21.836a16.225 16.225 0 0 0 1.689-.386q.708-.209 1.192-.386a2.413 2.413 0 0 1 .784-.177 1.144 1.144 0 0 1 .724.193 1.376 1.376 0 0 1 .392.547h.905V14.9a2.454 2.454 0 0 1 .317-1.5 1.221 1.221 0 0 1 .98-.37h.543V12h-8.506v1.03h.513a1.9 1.9 0 0 1 1.327.338 2.352 2.352 0 0 1 .332 1.53v5.281a5.583 5.583 0 0 1-.694.306 7.661 7.661 0 0 1-.86.258 4.58 4.58 0 0 1-1.071.113 4.885 4.885 0 0 1-2.73-.757A5.767 5.767 0 0 1 7.386 18a10.884 10.884 0 0 1-1.1-3.107 19.134 19.134 0 0 1-.362-3.832q0-1.03.121-2.351a15.183 15.183 0 0 1 .483-2.641 9.686 9.686 0 0 1 1.039-2.443 5.326 5.326 0 0 1 1.765-1.8 4.987 4.987 0 0 1 2.685-.676 5.415 5.415 0 0 1 2.172.419 5.229 5.229 0 0 1 1.674 1.143 5.784 5.784 0 0 1 1.146 1.707 9.557 9.557 0 0 1 .649 2.077h.965L18.412.374h-.905L17.386.7a.581.581 0 0 1-.271.354.907.907 0 0 1-.483.129 2.311 2.311 0 0 1-1.041-.31 8.959 8.959 0 0 0-1.584-.6 10.1 10.1 0 0 0-2.715-.29A10.719 10.719 0 0 0 5.8 1.34 9 9 0 0 0 2.228 5.2a13.449 13.449 0 0 0-1.252 6.058 12.787 12.787 0 0 0 1.237 5.909 8.327 8.327 0 0 0 3.514 3.623 11.213 11.213 0 0 0 5.385 1.224 13.375 13.375 0 0 0 2.337-.178z" fill="#fff" fill-rule="evenodd"/></svg>